<svg width="520" height="140" viewBox="0 0 520 140" fill="none" xmlns="http://www.w3.org/2000/svg">
  <defs>
    <linearGradient id="g" x1="0" y1="0" x2="520" y2="0" gradientUnits="userSpaceOnUse">
      <stop stop-color="#FFD55F"/>
      <stop offset="0.55" stop-color="#FF8A00"/>
      <stop offset="1" stop-color="#FF6A00"/>
    </linearGradient>
    <filter id="s" x="-20%" y="-50%" width="140%" height="200%">
      <feDropShadow dx="0" dy="6" stdDeviation="8" flood-color="#000" flood-opacity="0.45"/>
    </filter>
  </defs>

  <g filter="url(#s)">
    <path d="M82 28C55.49 28 34 49.49 34 76C34 102.51 55.49 124 82 124H126C152.51 124 174 102.51 174 76C174 49.49 152.51 28 126 28H82Z" fill="url(#g)" opacity="0.22"/>
    <path d="M98 44C76.91 44 60 60.91 60 82C60 103.09 76.91 120 98 120H118C139.09 120 156 103.09 156 82C156 60.91 139.09 44 118 44H98Z" fill="url(#g)" opacity="0.35"/>
    <path d="M106 52C89.43 52 76 65.43 76 82C76 98.57 89.43 112 106 112H110C126.57 112 140 98.57 140 82C140 65.43 126.57 52 110 52H106Z" fill="url(#g)"/>
  </g>

  <text x="195" y="92" font-family="Inter, system-ui, -apple-system, Segoe UI, Roboto, Arial" font-size="56" font-weight="800" fill="url(#g)">NEWVOX</text>
  <text x="195" y="122" font-family="Inter, system-ui, -apple-system, Segoe UI, Roboto, Arial" font-size="22" font-weight="600" fill="rgba(232,238,252,0.78)">Fibra</text>

  <!-- 3 dots (elemento da marca antiga) -->
  <circle cx="468" cy="58" r="7" fill="url(#g)"/>
  <circle cx="492" cy="58" r="7" fill="url(#g)"/>
  <circle cx="516" cy="58" r="7" fill="url(#g)"/>
</svg>
